G04 (created by PCBNEW (2012-nov-02)-testing) date Wed 06 Feb 2013 11:23:47 PM EST*
%MOIN*%
G04 Gerber Fmt 3.4, Leading zero omitted, Abs format*
%FSLAX34Y34*%
G01*
G70*
G90*
G04 APERTURE LIST*
%ADD10C,2.3622e-06*%
%ADD11C,0.055*%
%ADD12R,0.0551X0.0236*%
%ADD13C,0.15*%
%ADD14R,0.15X0.15*%
%ADD15C,0.025*%
%ADD16C,0.04*%
%ADD17C,0.03*%
%ADD18C,0.05*%
%ADD19C,0.01*%
G04 APERTURE END LIST*
G54D10*
G54D11*
X83200Y-69500D03*
X81200Y-69500D03*
X83200Y-68050D03*
X81200Y-68050D03*
G54D12*
X83250Y-70800D03*
X81150Y-70800D03*
X83250Y-71300D03*
X83250Y-71800D03*
X83250Y-72300D03*
X81150Y-71300D03*
X81150Y-71800D03*
X81150Y-72300D03*
G54D13*
X74850Y-69100D03*
X74850Y-71100D03*
G54D14*
X74850Y-67100D03*
G54D13*
X74850Y-73100D03*
X89750Y-69050D03*
X89750Y-71050D03*
G54D14*
X89750Y-67050D03*
G54D13*
X89750Y-73050D03*
G54D15*
X83200Y-68050D02*
X83200Y-68450D01*
X81800Y-70800D02*
X81150Y-70800D01*
X82450Y-70150D02*
X81800Y-70800D01*
X82450Y-69200D02*
X82450Y-70150D01*
X83200Y-68450D02*
X82450Y-69200D01*
G54D16*
X77050Y-71800D02*
X80450Y-71800D01*
G54D15*
X81150Y-71800D02*
X81900Y-71800D01*
G54D16*
X86700Y-71050D02*
X89750Y-71050D01*
X84800Y-72950D02*
X86700Y-71050D01*
X82650Y-72950D02*
X84800Y-72950D01*
X82400Y-72700D02*
X82650Y-72950D01*
X82400Y-72300D02*
X82400Y-72700D01*
X81900Y-71800D02*
X82400Y-72300D01*
X74850Y-71100D02*
X76350Y-71100D01*
G54D15*
X80450Y-71800D02*
X81150Y-71800D01*
G54D16*
X76350Y-71100D02*
X77050Y-71800D01*
G54D15*
X81150Y-72300D02*
X78400Y-72300D01*
X78400Y-72300D02*
X77575Y-73125D01*
G54D16*
X89750Y-73050D02*
X86500Y-73050D01*
X78200Y-73750D02*
X77575Y-73125D01*
X85800Y-73750D02*
X78200Y-73750D01*
X86500Y-73050D02*
X85800Y-73750D01*
G54D17*
X77575Y-73125D02*
X77550Y-73100D01*
G54D16*
X77550Y-73100D02*
X74850Y-73100D01*
G54D17*
X83200Y-69500D02*
X84500Y-69500D01*
X86200Y-67800D02*
X86200Y-67050D01*
X84500Y-69500D02*
X86200Y-67800D01*
G54D18*
X74850Y-67050D02*
X80100Y-67050D01*
G54D17*
X80100Y-67050D02*
X80150Y-67050D01*
G54D18*
X80150Y-67050D02*
X86200Y-67050D01*
X86200Y-67050D02*
X89750Y-67050D01*
G54D17*
X83200Y-69500D02*
X83200Y-70750D01*
G54D19*
X83200Y-70750D02*
X83250Y-70800D01*
G54D10*
G36*
X93500Y-74800D02*
X90751Y-74800D01*
X90751Y-69239D01*
X90748Y-68841D01*
X90603Y-68491D01*
X90461Y-68409D01*
X89820Y-69050D01*
X90461Y-69690D01*
X90603Y-69608D01*
X90751Y-69239D01*
X90751Y-74800D01*
X90750Y-74800D01*
X90750Y-72851D01*
X90598Y-72484D01*
X90317Y-72202D01*
X89949Y-72050D01*
X89948Y-72050D01*
X90315Y-71898D01*
X90597Y-71617D01*
X90749Y-71249D01*
X90750Y-70851D01*
X90598Y-70484D01*
X90317Y-70202D01*
X89949Y-70050D01*
X89754Y-70050D01*
X89958Y-70048D01*
X90308Y-69903D01*
X90390Y-69761D01*
X89750Y-69120D01*
X89679Y-69191D01*
X89679Y-69050D01*
X89038Y-68409D01*
X88896Y-68491D01*
X88748Y-68860D01*
X88751Y-69258D01*
X88896Y-69608D01*
X89038Y-69690D01*
X89679Y-69050D01*
X89679Y-69191D01*
X89109Y-69761D01*
X89191Y-69903D01*
X89555Y-70049D01*
X89551Y-70049D01*
X89184Y-70201D01*
X88902Y-70482D01*
X88854Y-70600D01*
X86700Y-70600D01*
X86556Y-70628D01*
X86527Y-70634D01*
X86381Y-70731D01*
X84613Y-72500D01*
X83762Y-72500D01*
X83775Y-72467D01*
X83775Y-72368D01*
X83775Y-72132D01*
X83741Y-72049D01*
X83775Y-71967D01*
X83775Y-71868D01*
X83775Y-71632D01*
X83741Y-71549D01*
X83775Y-71467D01*
X83775Y-71368D01*
X83775Y-71132D01*
X83741Y-71049D01*
X83775Y-70967D01*
X83775Y-70868D01*
X83775Y-70632D01*
X83737Y-70540D01*
X83667Y-70470D01*
X83600Y-70442D01*
X83600Y-69900D01*
X84500Y-69900D01*
X84500Y-69899D01*
X84627Y-69874D01*
X84653Y-69869D01*
X84653Y-69869D01*
X84782Y-69782D01*
X86482Y-68082D01*
X86482Y-68082D01*
X86569Y-67953D01*
X86569Y-67953D01*
X86574Y-67927D01*
X86599Y-67800D01*
X86600Y-67800D01*
X86600Y-67550D01*
X88749Y-67550D01*
X88749Y-67849D01*
X88787Y-67941D01*
X88858Y-68011D01*
X88950Y-68049D01*
X89049Y-68050D01*
X89740Y-68050D01*
X89541Y-68051D01*
X89191Y-68196D01*
X89109Y-68338D01*
X89750Y-68979D01*
X90390Y-68338D01*
X90308Y-68196D01*
X89943Y-68050D01*
X90549Y-68050D01*
X90641Y-68012D01*
X90711Y-67941D01*
X90749Y-67849D01*
X90750Y-67750D01*
X90750Y-66250D01*
X90725Y-66190D01*
X90725Y-63326D01*
X90592Y-63005D01*
X90346Y-62758D01*
X90024Y-62625D01*
X89676Y-62624D01*
X89355Y-62757D01*
X89108Y-63003D01*
X88975Y-63325D01*
X88974Y-63673D01*
X89107Y-63995D01*
X89353Y-64241D01*
X89675Y-64374D01*
X90023Y-64375D01*
X90345Y-64242D01*
X90591Y-63996D01*
X90724Y-63674D01*
X90725Y-63326D01*
X90725Y-66190D01*
X90712Y-66158D01*
X90641Y-66088D01*
X90549Y-66050D01*
X90450Y-66049D01*
X88950Y-66049D01*
X88858Y-66087D01*
X88788Y-66158D01*
X88750Y-66250D01*
X88749Y-66349D01*
X88749Y-66550D01*
X86200Y-66550D01*
X80150Y-66550D01*
X80125Y-66554D01*
X80100Y-66550D01*
X75850Y-66550D01*
X75850Y-66300D01*
X75812Y-66208D01*
X75741Y-66138D01*
X75725Y-66131D01*
X75725Y-63276D01*
X75592Y-62955D01*
X75346Y-62708D01*
X75024Y-62575D01*
X74676Y-62574D01*
X74355Y-62707D01*
X74108Y-62953D01*
X73975Y-63275D01*
X73974Y-63623D01*
X74107Y-63945D01*
X74353Y-64191D01*
X74675Y-64324D01*
X75023Y-64325D01*
X75345Y-64192D01*
X75591Y-63946D01*
X75724Y-63624D01*
X75725Y-63276D01*
X75725Y-66131D01*
X75649Y-66100D01*
X75550Y-66099D01*
X74050Y-66099D01*
X73958Y-66137D01*
X73888Y-66208D01*
X73850Y-66300D01*
X73849Y-66399D01*
X73849Y-67899D01*
X73887Y-67991D01*
X73958Y-68061D01*
X74050Y-68099D01*
X74149Y-68100D01*
X74840Y-68100D01*
X74641Y-68101D01*
X74291Y-68246D01*
X74209Y-68388D01*
X74850Y-69029D01*
X75490Y-68388D01*
X75408Y-68246D01*
X75043Y-68100D01*
X75649Y-68100D01*
X75741Y-68062D01*
X75811Y-67991D01*
X75849Y-67899D01*
X75850Y-67800D01*
X75850Y-67550D01*
X80100Y-67550D01*
X80125Y-67545D01*
X80150Y-67550D01*
X81022Y-67550D01*
X80927Y-67589D01*
X80902Y-67682D01*
X81200Y-67979D01*
X81497Y-67682D01*
X81472Y-67589D01*
X81360Y-67550D01*
X83035Y-67550D01*
X82903Y-67604D01*
X82755Y-67752D01*
X82675Y-67945D01*
X82674Y-68153D01*
X82754Y-68347D01*
X82763Y-68356D01*
X82184Y-68934D01*
X82103Y-69056D01*
X82075Y-69200D01*
X82075Y-69994D01*
X81729Y-70339D01*
X81729Y-69575D01*
X81729Y-68125D01*
X81718Y-67917D01*
X81660Y-67777D01*
X81567Y-67752D01*
X81270Y-68050D01*
X81567Y-68347D01*
X81660Y-68322D01*
X81729Y-68125D01*
X81729Y-69575D01*
X81718Y-69367D01*
X81660Y-69227D01*
X81567Y-69202D01*
X81497Y-69273D01*
X81497Y-69132D01*
X81497Y-68417D01*
X81200Y-68120D01*
X81129Y-68191D01*
X81129Y-68050D01*
X80832Y-67752D01*
X80739Y-67777D01*
X80670Y-67974D01*
X80681Y-68182D01*
X80739Y-68322D01*
X80832Y-68347D01*
X81129Y-68050D01*
X81129Y-68191D01*
X80902Y-68417D01*
X80927Y-68510D01*
X81124Y-68579D01*
X81332Y-68568D01*
X81472Y-68510D01*
X81497Y-68417D01*
X81497Y-69132D01*
X81472Y-69039D01*
X81275Y-68970D01*
X81067Y-68981D01*
X80927Y-69039D01*
X80902Y-69132D01*
X81200Y-69429D01*
X81497Y-69132D01*
X81497Y-69273D01*
X81270Y-69500D01*
X81567Y-69797D01*
X81660Y-69772D01*
X81729Y-69575D01*
X81729Y-70339D01*
X81644Y-70425D01*
X81497Y-70425D01*
X81497Y-69867D01*
X81200Y-69570D01*
X81129Y-69641D01*
X81129Y-69500D01*
X80832Y-69202D01*
X80739Y-69227D01*
X80670Y-69424D01*
X80681Y-69632D01*
X80739Y-69772D01*
X80832Y-69797D01*
X81129Y-69500D01*
X81129Y-69641D01*
X80902Y-69867D01*
X80927Y-69960D01*
X81124Y-70029D01*
X81332Y-70018D01*
X81472Y-69960D01*
X81497Y-69867D01*
X81497Y-70425D01*
X81150Y-70425D01*
X81115Y-70431D01*
X80824Y-70431D01*
X80733Y-70469D01*
X80662Y-70540D01*
X80624Y-70632D01*
X80624Y-70731D01*
X80624Y-70967D01*
X80658Y-71050D01*
X80624Y-71132D01*
X80624Y-71187D01*
X80687Y-71250D01*
X81050Y-71250D01*
X81100Y-71250D01*
X81200Y-71250D01*
X81250Y-71250D01*
X81613Y-71250D01*
X81675Y-71187D01*
X81675Y-71175D01*
X81800Y-71175D01*
X81943Y-71146D01*
X82065Y-71065D01*
X82715Y-70415D01*
X82715Y-70415D01*
X82796Y-70293D01*
X82800Y-70275D01*
X82800Y-70502D01*
X82762Y-70540D01*
X82724Y-70632D01*
X82724Y-70731D01*
X82724Y-70967D01*
X82758Y-71050D01*
X82724Y-71132D01*
X82724Y-71231D01*
X82724Y-71467D01*
X82758Y-71550D01*
X82724Y-71632D01*
X82724Y-71731D01*
X82724Y-71967D01*
X82750Y-72029D01*
X82718Y-71981D01*
X82218Y-71481D01*
X82072Y-71384D01*
X81900Y-71350D01*
X81727Y-71384D01*
X81675Y-71419D01*
X81675Y-71412D01*
X81613Y-71350D01*
X81250Y-71350D01*
X81200Y-71350D01*
X81100Y-71350D01*
X81050Y-71350D01*
X80687Y-71350D01*
X80640Y-71396D01*
X80622Y-71384D01*
X80450Y-71350D01*
X77236Y-71350D01*
X76668Y-70781D01*
X76522Y-70684D01*
X76350Y-70650D01*
X75851Y-70650D01*
X75851Y-69289D01*
X75848Y-68891D01*
X75703Y-68541D01*
X75561Y-68459D01*
X74920Y-69100D01*
X75561Y-69740D01*
X75703Y-69658D01*
X75851Y-69289D01*
X75851Y-70650D01*
X75746Y-70650D01*
X75698Y-70534D01*
X75417Y-70252D01*
X75049Y-70100D01*
X74854Y-70100D01*
X75058Y-70098D01*
X75408Y-69953D01*
X75490Y-69811D01*
X74850Y-69170D01*
X74779Y-69241D01*
X74779Y-69100D01*
X74138Y-68459D01*
X73996Y-68541D01*
X73848Y-68910D01*
X73851Y-69308D01*
X73996Y-69658D01*
X74138Y-69740D01*
X74779Y-69100D01*
X74779Y-69241D01*
X74209Y-69811D01*
X74291Y-69953D01*
X74655Y-70099D01*
X74651Y-70099D01*
X74284Y-70251D01*
X74002Y-70532D01*
X73850Y-70900D01*
X73849Y-71298D01*
X74001Y-71665D01*
X74282Y-71947D01*
X74650Y-72099D01*
X74651Y-72099D01*
X74284Y-72251D01*
X74002Y-72532D01*
X73850Y-72900D01*
X73849Y-73298D01*
X74001Y-73665D01*
X74282Y-73947D01*
X74650Y-74099D01*
X75048Y-74100D01*
X75415Y-73948D01*
X75697Y-73667D01*
X75745Y-73550D01*
X77363Y-73550D01*
X77881Y-74068D01*
X78027Y-74165D01*
X78200Y-74200D01*
X85800Y-74200D01*
X85972Y-74165D01*
X86118Y-74068D01*
X86686Y-73500D01*
X88853Y-73500D01*
X88901Y-73615D01*
X89182Y-73897D01*
X89550Y-74049D01*
X89948Y-74050D01*
X90315Y-73898D01*
X90597Y-73617D01*
X90749Y-73249D01*
X90750Y-72851D01*
X90750Y-74800D01*
X71250Y-74800D01*
X71250Y-61800D01*
X93500Y-61800D01*
X93500Y-74800D01*
X93500Y-74800D01*
G37*
G54D19*
X93500Y-74800D02*
X90751Y-74800D01*
X90751Y-69239D01*
X90748Y-68841D01*
X90603Y-68491D01*
X90461Y-68409D01*
X89820Y-69050D01*
X90461Y-69690D01*
X90603Y-69608D01*
X90751Y-69239D01*
X90751Y-74800D01*
X90750Y-74800D01*
X90750Y-72851D01*
X90598Y-72484D01*
X90317Y-72202D01*
X89949Y-72050D01*
X89948Y-72050D01*
X90315Y-71898D01*
X90597Y-71617D01*
X90749Y-71249D01*
X90750Y-70851D01*
X90598Y-70484D01*
X90317Y-70202D01*
X89949Y-70050D01*
X89754Y-70050D01*
X89958Y-70048D01*
X90308Y-69903D01*
X90390Y-69761D01*
X89750Y-69120D01*
X89679Y-69191D01*
X89679Y-69050D01*
X89038Y-68409D01*
X88896Y-68491D01*
X88748Y-68860D01*
X88751Y-69258D01*
X88896Y-69608D01*
X89038Y-69690D01*
X89679Y-69050D01*
X89679Y-69191D01*
X89109Y-69761D01*
X89191Y-69903D01*
X89555Y-70049D01*
X89551Y-70049D01*
X89184Y-70201D01*
X88902Y-70482D01*
X88854Y-70600D01*
X86700Y-70600D01*
X86556Y-70628D01*
X86527Y-70634D01*
X86381Y-70731D01*
X84613Y-72500D01*
X83762Y-72500D01*
X83775Y-72467D01*
X83775Y-72368D01*
X83775Y-72132D01*
X83741Y-72049D01*
X83775Y-71967D01*
X83775Y-71868D01*
X83775Y-71632D01*
X83741Y-71549D01*
X83775Y-71467D01*
X83775Y-71368D01*
X83775Y-71132D01*
X83741Y-71049D01*
X83775Y-70967D01*
X83775Y-70868D01*
X83775Y-70632D01*
X83737Y-70540D01*
X83667Y-70470D01*
X83600Y-70442D01*
X83600Y-69900D01*
X84500Y-69900D01*
X84500Y-69899D01*
X84627Y-69874D01*
X84653Y-69869D01*
X84653Y-69869D01*
X84782Y-69782D01*
X86482Y-68082D01*
X86482Y-68082D01*
X86569Y-67953D01*
X86569Y-67953D01*
X86574Y-67927D01*
X86599Y-67800D01*
X86600Y-67800D01*
X86600Y-67550D01*
X88749Y-67550D01*
X88749Y-67849D01*
X88787Y-67941D01*
X88858Y-68011D01*
X88950Y-68049D01*
X89049Y-68050D01*
X89740Y-68050D01*
X89541Y-68051D01*
X89191Y-68196D01*
X89109Y-68338D01*
X89750Y-68979D01*
X90390Y-68338D01*
X90308Y-68196D01*
X89943Y-68050D01*
X90549Y-68050D01*
X90641Y-68012D01*
X90711Y-67941D01*
X90749Y-67849D01*
X90750Y-67750D01*
X90750Y-66250D01*
X90725Y-66190D01*
X90725Y-63326D01*
X90592Y-63005D01*
X90346Y-62758D01*
X90024Y-62625D01*
X89676Y-62624D01*
X89355Y-62757D01*
X89108Y-63003D01*
X88975Y-63325D01*
X88974Y-63673D01*
X89107Y-63995D01*
X89353Y-64241D01*
X89675Y-64374D01*
X90023Y-64375D01*
X90345Y-64242D01*
X90591Y-63996D01*
X90724Y-63674D01*
X90725Y-63326D01*
X90725Y-66190D01*
X90712Y-66158D01*
X90641Y-66088D01*
X90549Y-66050D01*
X90450Y-66049D01*
X88950Y-66049D01*
X88858Y-66087D01*
X88788Y-66158D01*
X88750Y-66250D01*
X88749Y-66349D01*
X88749Y-66550D01*
X86200Y-66550D01*
X80150Y-66550D01*
X80125Y-66554D01*
X80100Y-66550D01*
X75850Y-66550D01*
X75850Y-66300D01*
X75812Y-66208D01*
X75741Y-66138D01*
X75725Y-66131D01*
X75725Y-63276D01*
X75592Y-62955D01*
X75346Y-62708D01*
X75024Y-62575D01*
X74676Y-62574D01*
X74355Y-62707D01*
X74108Y-62953D01*
X73975Y-63275D01*
X73974Y-63623D01*
X74107Y-63945D01*
X74353Y-64191D01*
X74675Y-64324D01*
X75023Y-64325D01*
X75345Y-64192D01*
X75591Y-63946D01*
X75724Y-63624D01*
X75725Y-63276D01*
X75725Y-66131D01*
X75649Y-66100D01*
X75550Y-66099D01*
X74050Y-66099D01*
X73958Y-66137D01*
X73888Y-66208D01*
X73850Y-66300D01*
X73849Y-66399D01*
X73849Y-67899D01*
X73887Y-67991D01*
X73958Y-68061D01*
X74050Y-68099D01*
X74149Y-68100D01*
X74840Y-68100D01*
X74641Y-68101D01*
X74291Y-68246D01*
X74209Y-68388D01*
X74850Y-69029D01*
X75490Y-68388D01*
X75408Y-68246D01*
X75043Y-68100D01*
X75649Y-68100D01*
X75741Y-68062D01*
X75811Y-67991D01*
X75849Y-67899D01*
X75850Y-67800D01*
X75850Y-67550D01*
X80100Y-67550D01*
X80125Y-67545D01*
X80150Y-67550D01*
X81022Y-67550D01*
X80927Y-67589D01*
X80902Y-67682D01*
X81200Y-67979D01*
X81497Y-67682D01*
X81472Y-67589D01*
X81360Y-67550D01*
X83035Y-67550D01*
X82903Y-67604D01*
X82755Y-67752D01*
X82675Y-67945D01*
X82674Y-68153D01*
X82754Y-68347D01*
X82763Y-68356D01*
X82184Y-68934D01*
X82103Y-69056D01*
X82075Y-69200D01*
X82075Y-69994D01*
X81729Y-70339D01*
X81729Y-69575D01*
X81729Y-68125D01*
X81718Y-67917D01*
X81660Y-67777D01*
X81567Y-67752D01*
X81270Y-68050D01*
X81567Y-68347D01*
X81660Y-68322D01*
X81729Y-68125D01*
X81729Y-69575D01*
X81718Y-69367D01*
X81660Y-69227D01*
X81567Y-69202D01*
X81497Y-69273D01*
X81497Y-69132D01*
X81497Y-68417D01*
X81200Y-68120D01*
X81129Y-68191D01*
X81129Y-68050D01*
X80832Y-67752D01*
X80739Y-67777D01*
X80670Y-67974D01*
X80681Y-68182D01*
X80739Y-68322D01*
X80832Y-68347D01*
X81129Y-68050D01*
X81129Y-68191D01*
X80902Y-68417D01*
X80927Y-68510D01*
X81124Y-68579D01*
X81332Y-68568D01*
X81472Y-68510D01*
X81497Y-68417D01*
X81497Y-69132D01*
X81472Y-69039D01*
X81275Y-68970D01*
X81067Y-68981D01*
X80927Y-69039D01*
X80902Y-69132D01*
X81200Y-69429D01*
X81497Y-69132D01*
X81497Y-69273D01*
X81270Y-69500D01*
X81567Y-69797D01*
X81660Y-69772D01*
X81729Y-69575D01*
X81729Y-70339D01*
X81644Y-70425D01*
X81497Y-70425D01*
X81497Y-69867D01*
X81200Y-69570D01*
X81129Y-69641D01*
X81129Y-69500D01*
X80832Y-69202D01*
X80739Y-69227D01*
X80670Y-69424D01*
X80681Y-69632D01*
X80739Y-69772D01*
X80832Y-69797D01*
X81129Y-69500D01*
X81129Y-69641D01*
X80902Y-69867D01*
X80927Y-69960D01*
X81124Y-70029D01*
X81332Y-70018D01*
X81472Y-69960D01*
X81497Y-69867D01*
X81497Y-70425D01*
X81150Y-70425D01*
X81115Y-70431D01*
X80824Y-70431D01*
X80733Y-70469D01*
X80662Y-70540D01*
X80624Y-70632D01*
X80624Y-70731D01*
X80624Y-70967D01*
X80658Y-71050D01*
X80624Y-71132D01*
X80624Y-71187D01*
X80687Y-71250D01*
X81050Y-71250D01*
X81100Y-71250D01*
X81200Y-71250D01*
X81250Y-71250D01*
X81613Y-71250D01*
X81675Y-71187D01*
X81675Y-71175D01*
X81800Y-71175D01*
X81943Y-71146D01*
X82065Y-71065D01*
X82715Y-70415D01*
X82715Y-70415D01*
X82796Y-70293D01*
X82800Y-70275D01*
X82800Y-70502D01*
X82762Y-70540D01*
X82724Y-70632D01*
X82724Y-70731D01*
X82724Y-70967D01*
X82758Y-71050D01*
X82724Y-71132D01*
X82724Y-71231D01*
X82724Y-71467D01*
X82758Y-71550D01*
X82724Y-71632D01*
X82724Y-71731D01*
X82724Y-71967D01*
X82750Y-72029D01*
X82718Y-71981D01*
X82218Y-71481D01*
X82072Y-71384D01*
X81900Y-71350D01*
X81727Y-71384D01*
X81675Y-71419D01*
X81675Y-71412D01*
X81613Y-71350D01*
X81250Y-71350D01*
X81200Y-71350D01*
X81100Y-71350D01*
X81050Y-71350D01*
X80687Y-71350D01*
X80640Y-71396D01*
X80622Y-71384D01*
X80450Y-71350D01*
X77236Y-71350D01*
X76668Y-70781D01*
X76522Y-70684D01*
X76350Y-70650D01*
X75851Y-70650D01*
X75851Y-69289D01*
X75848Y-68891D01*
X75703Y-68541D01*
X75561Y-68459D01*
X74920Y-69100D01*
X75561Y-69740D01*
X75703Y-69658D01*
X75851Y-69289D01*
X75851Y-70650D01*
X75746Y-70650D01*
X75698Y-70534D01*
X75417Y-70252D01*
X75049Y-70100D01*
X74854Y-70100D01*
X75058Y-70098D01*
X75408Y-69953D01*
X75490Y-69811D01*
X74850Y-69170D01*
X74779Y-69241D01*
X74779Y-69100D01*
X74138Y-68459D01*
X73996Y-68541D01*
X73848Y-68910D01*
X73851Y-69308D01*
X73996Y-69658D01*
X74138Y-69740D01*
X74779Y-69100D01*
X74779Y-69241D01*
X74209Y-69811D01*
X74291Y-69953D01*
X74655Y-70099D01*
X74651Y-70099D01*
X74284Y-70251D01*
X74002Y-70532D01*
X73850Y-70900D01*
X73849Y-71298D01*
X74001Y-71665D01*
X74282Y-71947D01*
X74650Y-72099D01*
X74651Y-72099D01*
X74284Y-72251D01*
X74002Y-72532D01*
X73850Y-72900D01*
X73849Y-73298D01*
X74001Y-73665D01*
X74282Y-73947D01*
X74650Y-74099D01*
X75048Y-74100D01*
X75415Y-73948D01*
X75697Y-73667D01*
X75745Y-73550D01*
X77363Y-73550D01*
X77881Y-74068D01*
X78027Y-74165D01*
X78200Y-74200D01*
X85800Y-74200D01*
X85972Y-74165D01*
X86118Y-74068D01*
X86686Y-73500D01*
X88853Y-73500D01*
X88901Y-73615D01*
X89182Y-73897D01*
X89550Y-74049D01*
X89948Y-74050D01*
X90315Y-73898D01*
X90597Y-73617D01*
X90749Y-73249D01*
X90750Y-72851D01*
X90750Y-74800D01*
X71250Y-74800D01*
X71250Y-61800D01*
X93500Y-61800D01*
X93500Y-74800D01*
M02*
