G04 (created by PCBNEW (2013-mar-04)-testing) date Thu 14 Mar 2013 10:18:32 PM EDT*
%MOIN*%
G04 Gerber Fmt 3.4, Leading zero omitted, Abs format*
%FSLAX34Y34*%
G01*
G70*
G90*
G04 APERTURE LIST*
%ADD10C,2.3622e-06*%
%ADD11C,0.006*%
%ADD12C,0.01*%
%ADD13C,0.0001*%
%ADD14C,0.005*%
G04 APERTURE END LIST*
G54D10*
G54D11*
X79121Y-67361D02*
X79121Y-66961D01*
X79250Y-67000D02*
X79264Y-66980D01*
X79292Y-66961D01*
X79364Y-66961D01*
X79392Y-66980D01*
X79407Y-67000D01*
X79421Y-67038D01*
X79421Y-67076D01*
X79407Y-67133D01*
X79235Y-67361D01*
X79421Y-67361D01*
X79721Y-67323D02*
X79707Y-67342D01*
X79664Y-67361D01*
X79635Y-67361D01*
X79592Y-67342D01*
X79564Y-67304D01*
X79550Y-67266D01*
X79535Y-67190D01*
X79535Y-67133D01*
X79550Y-67057D01*
X79564Y-67019D01*
X79592Y-66980D01*
X79635Y-66961D01*
X79664Y-66961D01*
X79707Y-66980D01*
X79721Y-67000D01*
X80035Y-66961D02*
X80207Y-66961D01*
X80121Y-67361D02*
X80121Y-66961D01*
X80421Y-67342D02*
X80392Y-67361D01*
X80335Y-67361D01*
X80307Y-67342D01*
X80292Y-67304D01*
X80292Y-67152D01*
X80307Y-67114D01*
X80335Y-67095D01*
X80392Y-67095D01*
X80421Y-67114D01*
X80435Y-67152D01*
X80435Y-67190D01*
X80292Y-67228D01*
X80564Y-67361D02*
X80564Y-67095D01*
X80564Y-67133D02*
X80578Y-67114D01*
X80607Y-67095D01*
X80649Y-67095D01*
X80678Y-67114D01*
X80692Y-67152D01*
X80692Y-67361D01*
X80692Y-67152D02*
X80707Y-67114D01*
X80735Y-67095D01*
X80778Y-67095D01*
X80807Y-67114D01*
X80821Y-67152D01*
X80821Y-67361D01*
X80964Y-67095D02*
X80964Y-67495D01*
X80964Y-67114D02*
X80992Y-67095D01*
X81049Y-67095D01*
X81078Y-67114D01*
X81092Y-67133D01*
X81107Y-67171D01*
X81107Y-67285D01*
X81092Y-67323D01*
X81078Y-67342D01*
X81049Y-67361D01*
X80992Y-67361D01*
X80964Y-67342D01*
X81349Y-67342D02*
X81321Y-67361D01*
X81264Y-67361D01*
X81235Y-67342D01*
X81221Y-67304D01*
X81221Y-67152D01*
X81235Y-67114D01*
X81264Y-67095D01*
X81321Y-67095D01*
X81349Y-67114D01*
X81364Y-67152D01*
X81364Y-67190D01*
X81221Y-67228D01*
X81492Y-67361D02*
X81492Y-67095D01*
X81492Y-67171D02*
X81507Y-67133D01*
X81521Y-67114D01*
X81549Y-67095D01*
X81578Y-67095D01*
X81807Y-67361D02*
X81807Y-67152D01*
X81792Y-67114D01*
X81764Y-67095D01*
X81707Y-67095D01*
X81678Y-67114D01*
X81807Y-67342D02*
X81778Y-67361D01*
X81707Y-67361D01*
X81678Y-67342D01*
X81664Y-67304D01*
X81664Y-67266D01*
X81678Y-67228D01*
X81707Y-67209D01*
X81778Y-67209D01*
X81807Y-67190D01*
X81907Y-67095D02*
X82021Y-67095D01*
X81950Y-66961D02*
X81950Y-67304D01*
X81964Y-67342D01*
X81992Y-67361D01*
X82021Y-67361D01*
X82250Y-67095D02*
X82250Y-67361D01*
X82121Y-67095D02*
X82121Y-67304D01*
X82135Y-67342D01*
X82164Y-67361D01*
X82207Y-67361D01*
X82235Y-67342D01*
X82250Y-67323D01*
X82392Y-67361D02*
X82392Y-67095D01*
X82392Y-67171D02*
X82407Y-67133D01*
X82421Y-67114D01*
X82450Y-67095D01*
X82478Y-67095D01*
X82692Y-67342D02*
X82664Y-67361D01*
X82607Y-67361D01*
X82578Y-67342D01*
X82564Y-67304D01*
X82564Y-67152D01*
X82578Y-67114D01*
X82607Y-67095D01*
X82664Y-67095D01*
X82692Y-67114D01*
X82707Y-67152D01*
X82707Y-67190D01*
X82564Y-67228D01*
X79250Y-67981D02*
X79250Y-67772D01*
X79235Y-67734D01*
X79207Y-67715D01*
X79150Y-67715D01*
X79121Y-67734D01*
X79250Y-67962D02*
X79221Y-67981D01*
X79150Y-67981D01*
X79121Y-67962D01*
X79107Y-67924D01*
X79107Y-67886D01*
X79121Y-67848D01*
X79150Y-67829D01*
X79221Y-67829D01*
X79250Y-67810D01*
X79392Y-67715D02*
X79392Y-67981D01*
X79392Y-67753D02*
X79407Y-67734D01*
X79435Y-67715D01*
X79478Y-67715D01*
X79507Y-67734D01*
X79521Y-67772D01*
X79521Y-67981D01*
X79792Y-67981D02*
X79792Y-67581D01*
X79792Y-67962D02*
X79764Y-67981D01*
X79707Y-67981D01*
X79678Y-67962D01*
X79664Y-67943D01*
X79650Y-67905D01*
X79650Y-67791D01*
X79664Y-67753D01*
X79678Y-67734D01*
X79707Y-67715D01*
X79764Y-67715D01*
X79792Y-67734D01*
X80164Y-67981D02*
X80164Y-67581D01*
X80164Y-67772D02*
X80335Y-67772D01*
X80335Y-67981D02*
X80335Y-67581D01*
X80607Y-67715D02*
X80607Y-67981D01*
X80478Y-67715D02*
X80478Y-67924D01*
X80492Y-67962D01*
X80521Y-67981D01*
X80564Y-67981D01*
X80592Y-67962D01*
X80607Y-67943D01*
X80750Y-67981D02*
X80750Y-67715D01*
X80750Y-67753D02*
X80764Y-67734D01*
X80792Y-67715D01*
X80835Y-67715D01*
X80864Y-67734D01*
X80878Y-67772D01*
X80878Y-67981D01*
X80878Y-67772D02*
X80892Y-67734D01*
X80921Y-67715D01*
X80964Y-67715D01*
X80992Y-67734D01*
X81007Y-67772D01*
X81007Y-67981D01*
X81150Y-67981D02*
X81150Y-67715D01*
X81150Y-67581D02*
X81135Y-67600D01*
X81150Y-67620D01*
X81164Y-67600D01*
X81150Y-67581D01*
X81150Y-67620D01*
X81421Y-67981D02*
X81421Y-67581D01*
X81421Y-67962D02*
X81392Y-67981D01*
X81335Y-67981D01*
X81307Y-67962D01*
X81292Y-67943D01*
X81278Y-67905D01*
X81278Y-67791D01*
X81292Y-67753D01*
X81307Y-67734D01*
X81335Y-67715D01*
X81392Y-67715D01*
X81421Y-67734D01*
X81564Y-67981D02*
X81564Y-67715D01*
X81564Y-67581D02*
X81550Y-67600D01*
X81564Y-67620D01*
X81578Y-67600D01*
X81564Y-67581D01*
X81564Y-67620D01*
X81664Y-67715D02*
X81778Y-67715D01*
X81707Y-67581D02*
X81707Y-67924D01*
X81721Y-67962D01*
X81750Y-67981D01*
X81778Y-67981D01*
X81850Y-67715D02*
X81921Y-67981D01*
X81992Y-67715D02*
X81921Y-67981D01*
X81892Y-68077D01*
X81878Y-68096D01*
X81850Y-68115D01*
X82321Y-67962D02*
X82364Y-67981D01*
X82435Y-67981D01*
X82464Y-67962D01*
X82478Y-67943D01*
X82492Y-67905D01*
X82492Y-67867D01*
X82478Y-67829D01*
X82464Y-67810D01*
X82435Y-67791D01*
X82378Y-67772D01*
X82350Y-67753D01*
X82335Y-67734D01*
X82321Y-67696D01*
X82321Y-67658D01*
X82335Y-67620D01*
X82350Y-67600D01*
X82378Y-67581D01*
X82450Y-67581D01*
X82492Y-67600D01*
X82735Y-67962D02*
X82707Y-67981D01*
X82650Y-67981D01*
X82621Y-67962D01*
X82607Y-67924D01*
X82607Y-67772D01*
X82621Y-67734D01*
X82650Y-67715D01*
X82707Y-67715D01*
X82735Y-67734D01*
X82750Y-67772D01*
X82750Y-67810D01*
X82607Y-67848D01*
X82878Y-67715D02*
X82878Y-67981D01*
X82878Y-67753D02*
X82892Y-67734D01*
X82921Y-67715D01*
X82964Y-67715D01*
X82992Y-67734D01*
X83007Y-67772D01*
X83007Y-67981D01*
X83135Y-67962D02*
X83164Y-67981D01*
X83221Y-67981D01*
X83250Y-67962D01*
X83264Y-67924D01*
X83264Y-67905D01*
X83250Y-67867D01*
X83221Y-67848D01*
X83178Y-67848D01*
X83150Y-67829D01*
X83135Y-67791D01*
X83135Y-67772D01*
X83150Y-67734D01*
X83178Y-67715D01*
X83221Y-67715D01*
X83250Y-67734D01*
X83435Y-67981D02*
X83407Y-67962D01*
X83392Y-67943D01*
X83378Y-67905D01*
X83378Y-67791D01*
X83392Y-67753D01*
X83407Y-67734D01*
X83435Y-67715D01*
X83478Y-67715D01*
X83507Y-67734D01*
X83521Y-67753D01*
X83535Y-67791D01*
X83535Y-67905D01*
X83521Y-67943D01*
X83507Y-67962D01*
X83478Y-67981D01*
X83435Y-67981D01*
X83664Y-67981D02*
X83664Y-67715D01*
X83664Y-67791D02*
X83678Y-67753D01*
X83692Y-67734D01*
X83721Y-67715D01*
X83750Y-67715D01*
X87182Y-69980D02*
X87153Y-69961D01*
X87110Y-69961D01*
X87067Y-69980D01*
X87039Y-70019D01*
X87025Y-70057D01*
X87010Y-70133D01*
X87010Y-70190D01*
X87025Y-70266D01*
X87039Y-70304D01*
X87067Y-70342D01*
X87110Y-70361D01*
X87139Y-70361D01*
X87182Y-70342D01*
X87196Y-70323D01*
X87196Y-70190D01*
X87139Y-70190D01*
X87325Y-70095D02*
X87325Y-70361D01*
X87325Y-70133D02*
X87339Y-70114D01*
X87367Y-70095D01*
X87410Y-70095D01*
X87439Y-70114D01*
X87453Y-70152D01*
X87453Y-70361D01*
X87725Y-70361D02*
X87725Y-69961D01*
X87725Y-70342D02*
X87696Y-70361D01*
X87639Y-70361D01*
X87610Y-70342D01*
X87596Y-70323D01*
X87582Y-70285D01*
X87582Y-70171D01*
X87596Y-70133D01*
X87610Y-70114D01*
X87639Y-70095D01*
X87696Y-70095D01*
X87725Y-70114D01*
X87039Y-72411D02*
X87039Y-72011D01*
X87110Y-72011D01*
X87153Y-72030D01*
X87182Y-72069D01*
X87196Y-72107D01*
X87210Y-72183D01*
X87210Y-72240D01*
X87196Y-72316D01*
X87182Y-72354D01*
X87153Y-72392D01*
X87110Y-72411D01*
X87039Y-72411D01*
X87467Y-72411D02*
X87467Y-72202D01*
X87453Y-72164D01*
X87425Y-72145D01*
X87367Y-72145D01*
X87339Y-72164D01*
X87467Y-72392D02*
X87439Y-72411D01*
X87367Y-72411D01*
X87339Y-72392D01*
X87325Y-72354D01*
X87325Y-72316D01*
X87339Y-72278D01*
X87367Y-72259D01*
X87439Y-72259D01*
X87467Y-72240D01*
X87567Y-72145D02*
X87682Y-72145D01*
X87610Y-72011D02*
X87610Y-72354D01*
X87625Y-72392D01*
X87653Y-72411D01*
X87682Y-72411D01*
X87910Y-72411D02*
X87910Y-72202D01*
X87896Y-72164D01*
X87867Y-72145D01*
X87810Y-72145D01*
X87782Y-72164D01*
X87910Y-72392D02*
X87882Y-72411D01*
X87810Y-72411D01*
X87782Y-72392D01*
X87767Y-72354D01*
X87767Y-72316D01*
X87782Y-72278D01*
X87810Y-72259D01*
X87882Y-72259D01*
X87910Y-72240D01*
X87217Y-71323D02*
X87203Y-71342D01*
X87160Y-71361D01*
X87132Y-71361D01*
X87089Y-71342D01*
X87060Y-71304D01*
X87046Y-71266D01*
X87032Y-71190D01*
X87032Y-71133D01*
X87046Y-71057D01*
X87060Y-71019D01*
X87089Y-70980D01*
X87132Y-70961D01*
X87160Y-70961D01*
X87203Y-70980D01*
X87217Y-71000D01*
X87389Y-71361D02*
X87360Y-71342D01*
X87346Y-71304D01*
X87346Y-70961D01*
X87503Y-71361D02*
X87503Y-70961D01*
X87532Y-71209D02*
X87617Y-71361D01*
X87617Y-71095D02*
X87503Y-71247D01*
X86989Y-68986D02*
X87089Y-69386D01*
X87189Y-68986D01*
X87289Y-69234D02*
X87517Y-69234D01*
X87403Y-69386D02*
X87403Y-69082D01*
X85485Y-73150D02*
X85500Y-73130D01*
X85528Y-73111D01*
X85600Y-73111D01*
X85628Y-73130D01*
X85642Y-73150D01*
X85657Y-73188D01*
X85657Y-73226D01*
X85642Y-73283D01*
X85471Y-73511D01*
X85657Y-73511D01*
X85842Y-73111D02*
X85871Y-73111D01*
X85900Y-73130D01*
X85914Y-73150D01*
X85928Y-73188D01*
X85942Y-73264D01*
X85942Y-73359D01*
X85928Y-73435D01*
X85914Y-73473D01*
X85900Y-73492D01*
X85871Y-73511D01*
X85842Y-73511D01*
X85814Y-73492D01*
X85800Y-73473D01*
X85785Y-73435D01*
X85771Y-73359D01*
X85771Y-73264D01*
X85785Y-73188D01*
X85800Y-73150D01*
X85814Y-73130D01*
X85842Y-73111D01*
X86228Y-73511D02*
X86057Y-73511D01*
X86142Y-73511D02*
X86142Y-73111D01*
X86114Y-73169D01*
X86085Y-73207D01*
X86057Y-73226D01*
X86328Y-73111D02*
X86514Y-73111D01*
X86414Y-73264D01*
X86457Y-73264D01*
X86485Y-73283D01*
X86500Y-73302D01*
X86514Y-73340D01*
X86514Y-73435D01*
X86500Y-73473D01*
X86485Y-73492D01*
X86457Y-73511D01*
X86371Y-73511D01*
X86342Y-73492D01*
X86328Y-73473D01*
X86871Y-73511D02*
X86871Y-73245D01*
X86871Y-73321D02*
X86885Y-73283D01*
X86900Y-73264D01*
X86928Y-73245D01*
X86957Y-73245D01*
X87171Y-73492D02*
X87142Y-73511D01*
X87085Y-73511D01*
X87057Y-73492D01*
X87042Y-73454D01*
X87042Y-73302D01*
X87057Y-73264D01*
X87085Y-73245D01*
X87142Y-73245D01*
X87171Y-73264D01*
X87185Y-73302D01*
X87185Y-73340D01*
X87042Y-73378D01*
X87285Y-73245D02*
X87357Y-73511D01*
X87428Y-73245D01*
X87642Y-73302D02*
X87685Y-73321D01*
X87699Y-73340D01*
X87714Y-73378D01*
X87714Y-73435D01*
X87699Y-73473D01*
X87685Y-73492D01*
X87657Y-73511D01*
X87542Y-73511D01*
X87542Y-73111D01*
X87642Y-73111D01*
X87671Y-73130D01*
X87685Y-73150D01*
X87699Y-73188D01*
X87699Y-73226D01*
X87685Y-73264D01*
X87671Y-73283D01*
X87642Y-73302D01*
X87542Y-73302D01*
X76978Y-73130D02*
X76949Y-73111D01*
X76907Y-73111D01*
X76864Y-73130D01*
X76835Y-73169D01*
X76821Y-73207D01*
X76807Y-73283D01*
X76807Y-73340D01*
X76821Y-73416D01*
X76835Y-73454D01*
X76864Y-73492D01*
X76907Y-73511D01*
X76935Y-73511D01*
X76978Y-73492D01*
X76992Y-73473D01*
X76992Y-73340D01*
X76935Y-73340D01*
X77249Y-73511D02*
X77249Y-73302D01*
X77235Y-73264D01*
X77207Y-73245D01*
X77149Y-73245D01*
X77121Y-73264D01*
X77249Y-73492D02*
X77221Y-73511D01*
X77149Y-73511D01*
X77121Y-73492D01*
X77107Y-73454D01*
X77107Y-73416D01*
X77121Y-73378D01*
X77149Y-73359D01*
X77221Y-73359D01*
X77249Y-73340D01*
X77435Y-73511D02*
X77407Y-73492D01*
X77392Y-73454D01*
X77392Y-73111D01*
X77521Y-73245D02*
X77592Y-73511D01*
X77664Y-73245D01*
X77907Y-73511D02*
X77907Y-73302D01*
X77892Y-73264D01*
X77864Y-73245D01*
X77807Y-73245D01*
X77778Y-73264D01*
X77907Y-73492D02*
X77878Y-73511D01*
X77807Y-73511D01*
X77778Y-73492D01*
X77764Y-73454D01*
X77764Y-73416D01*
X77778Y-73378D01*
X77807Y-73359D01*
X77878Y-73359D01*
X77907Y-73340D01*
X78050Y-73245D02*
X78050Y-73511D01*
X78050Y-73283D02*
X78064Y-73264D01*
X78092Y-73245D01*
X78135Y-73245D01*
X78164Y-73264D01*
X78178Y-73302D01*
X78178Y-73511D01*
X78278Y-73245D02*
X78392Y-73245D01*
X78321Y-73111D02*
X78321Y-73454D01*
X78335Y-73492D01*
X78364Y-73511D01*
X78392Y-73511D01*
X78721Y-73511D02*
X78721Y-73111D01*
X78864Y-73245D02*
X78864Y-73511D01*
X78864Y-73283D02*
X78878Y-73264D01*
X78907Y-73245D01*
X78950Y-73245D01*
X78978Y-73264D01*
X78992Y-73302D01*
X78992Y-73511D01*
X79264Y-73511D02*
X79264Y-73111D01*
X79264Y-73492D02*
X79235Y-73511D01*
X79178Y-73511D01*
X79150Y-73492D01*
X79135Y-73473D01*
X79121Y-73435D01*
X79121Y-73321D01*
X79135Y-73283D01*
X79150Y-73264D01*
X79178Y-73245D01*
X79235Y-73245D01*
X79264Y-73264D01*
X79535Y-73245D02*
X79535Y-73511D01*
X79407Y-73245D02*
X79407Y-73454D01*
X79421Y-73492D01*
X79450Y-73511D01*
X79492Y-73511D01*
X79521Y-73492D01*
X79535Y-73473D01*
X79664Y-73492D02*
X79692Y-73511D01*
X79750Y-73511D01*
X79778Y-73492D01*
X79792Y-73454D01*
X79792Y-73435D01*
X79778Y-73397D01*
X79750Y-73378D01*
X79707Y-73378D01*
X79678Y-73359D01*
X79664Y-73321D01*
X79664Y-73302D01*
X79678Y-73264D01*
X79707Y-73245D01*
X79750Y-73245D01*
X79778Y-73264D01*
X79878Y-73245D02*
X79992Y-73245D01*
X79921Y-73111D02*
X79921Y-73454D01*
X79935Y-73492D01*
X79964Y-73511D01*
X79992Y-73511D01*
X80092Y-73511D02*
X80092Y-73245D01*
X80092Y-73321D02*
X80107Y-73283D01*
X80121Y-73264D01*
X80150Y-73245D01*
X80178Y-73245D01*
X80278Y-73511D02*
X80278Y-73245D01*
X80278Y-73111D02*
X80264Y-73130D01*
X80278Y-73150D01*
X80292Y-73130D01*
X80278Y-73111D01*
X80278Y-73150D01*
X80535Y-73492D02*
X80507Y-73511D01*
X80450Y-73511D01*
X80421Y-73492D01*
X80407Y-73454D01*
X80407Y-73302D01*
X80421Y-73264D01*
X80450Y-73245D01*
X80507Y-73245D01*
X80535Y-73264D01*
X80550Y-73302D01*
X80550Y-73340D01*
X80407Y-73378D01*
X80664Y-73492D02*
X80692Y-73511D01*
X80750Y-73511D01*
X80778Y-73492D01*
X80792Y-73454D01*
X80792Y-73435D01*
X80778Y-73397D01*
X80750Y-73378D01*
X80707Y-73378D01*
X80678Y-73359D01*
X80664Y-73321D01*
X80664Y-73302D01*
X80678Y-73264D01*
X80707Y-73245D01*
X80750Y-73245D01*
X80778Y-73264D01*
X76939Y-68936D02*
X77039Y-69336D01*
X77139Y-68936D01*
X77239Y-69184D02*
X77467Y-69184D01*
X77353Y-69336D02*
X77353Y-69032D01*
X77017Y-71323D02*
X77003Y-71342D01*
X76960Y-71361D01*
X76932Y-71361D01*
X76889Y-71342D01*
X76860Y-71304D01*
X76846Y-71266D01*
X76832Y-71190D01*
X76832Y-71133D01*
X76846Y-71057D01*
X76860Y-71019D01*
X76889Y-70980D01*
X76932Y-70961D01*
X76960Y-70961D01*
X77003Y-70980D01*
X77017Y-71000D01*
X77189Y-71361D02*
X77160Y-71342D01*
X77146Y-71304D01*
X77146Y-70961D01*
X77303Y-71361D02*
X77303Y-70961D01*
X77332Y-71209D02*
X77417Y-71361D01*
X77417Y-71095D02*
X77303Y-71247D01*
X76639Y-72361D02*
X76639Y-71961D01*
X76710Y-71961D01*
X76753Y-71980D01*
X76782Y-72019D01*
X76796Y-72057D01*
X76810Y-72133D01*
X76810Y-72190D01*
X76796Y-72266D01*
X76782Y-72304D01*
X76753Y-72342D01*
X76710Y-72361D01*
X76639Y-72361D01*
X77067Y-72361D02*
X77067Y-72152D01*
X77053Y-72114D01*
X77025Y-72095D01*
X76967Y-72095D01*
X76939Y-72114D01*
X77067Y-72342D02*
X77039Y-72361D01*
X76967Y-72361D01*
X76939Y-72342D01*
X76925Y-72304D01*
X76925Y-72266D01*
X76939Y-72228D01*
X76967Y-72209D01*
X77039Y-72209D01*
X77067Y-72190D01*
X77167Y-72095D02*
X77282Y-72095D01*
X77210Y-71961D02*
X77210Y-72304D01*
X77225Y-72342D01*
X77253Y-72361D01*
X77282Y-72361D01*
X77510Y-72361D02*
X77510Y-72152D01*
X77496Y-72114D01*
X77467Y-72095D01*
X77410Y-72095D01*
X77382Y-72114D01*
X77510Y-72342D02*
X77482Y-72361D01*
X77410Y-72361D01*
X77382Y-72342D01*
X77367Y-72304D01*
X77367Y-72266D01*
X77382Y-72228D01*
X77410Y-72209D01*
X77482Y-72209D01*
X77510Y-72190D01*
X76882Y-70055D02*
X76853Y-70036D01*
X76810Y-70036D01*
X76767Y-70055D01*
X76739Y-70094D01*
X76725Y-70132D01*
X76710Y-70208D01*
X76710Y-70265D01*
X76725Y-70341D01*
X76739Y-70379D01*
X76767Y-70417D01*
X76810Y-70436D01*
X76839Y-70436D01*
X76882Y-70417D01*
X76896Y-70398D01*
X76896Y-70265D01*
X76839Y-70265D01*
X77025Y-70170D02*
X77025Y-70436D01*
X77025Y-70208D02*
X77039Y-70189D01*
X77067Y-70170D01*
X77110Y-70170D01*
X77139Y-70189D01*
X77153Y-70227D01*
X77153Y-70436D01*
X77425Y-70436D02*
X77425Y-70036D01*
X77425Y-70417D02*
X77396Y-70436D01*
X77339Y-70436D01*
X77310Y-70417D01*
X77296Y-70398D01*
X77282Y-70360D01*
X77282Y-70246D01*
X77296Y-70208D01*
X77310Y-70189D01*
X77339Y-70170D01*
X77396Y-70170D01*
X77425Y-70189D01*
G54D12*
X84170Y-72790D02*
X84170Y-68609D01*
X86729Y-72790D02*
X86729Y-68609D01*
X86729Y-68609D02*
X84170Y-68609D01*
X84170Y-72790D02*
X86729Y-72790D01*
X77695Y-72790D02*
X77695Y-68609D01*
X80254Y-72790D02*
X80254Y-68609D01*
X80254Y-68609D02*
X77695Y-68609D01*
X77695Y-72790D02*
X80254Y-72790D01*
G54D13*
G36*
X84477Y-68040D02*
X84484Y-68036D01*
X84499Y-68027D01*
X84521Y-68012D01*
X84547Y-67995D01*
X84573Y-67977D01*
X84595Y-67963D01*
X84610Y-67953D01*
X84616Y-67950D01*
X84619Y-67951D01*
X84632Y-67957D01*
X84649Y-67966D01*
X84660Y-67972D01*
X84676Y-67979D01*
X84685Y-67980D01*
X84686Y-67978D01*
X84692Y-67966D01*
X84701Y-67944D01*
X84714Y-67916D01*
X84728Y-67882D01*
X84743Y-67846D01*
X84759Y-67810D01*
X84773Y-67775D01*
X84786Y-67743D01*
X84796Y-67717D01*
X84803Y-67700D01*
X84806Y-67692D01*
X84805Y-67690D01*
X84797Y-67682D01*
X84782Y-67672D01*
X84751Y-67646D01*
X84720Y-67608D01*
X84702Y-67565D01*
X84695Y-67516D01*
X84701Y-67471D01*
X84718Y-67429D01*
X84748Y-67390D01*
X84785Y-67361D01*
X84827Y-67343D01*
X84875Y-67337D01*
X84920Y-67342D01*
X84964Y-67360D01*
X85003Y-67389D01*
X85020Y-67408D01*
X85042Y-67447D01*
X85055Y-67489D01*
X85056Y-67500D01*
X85054Y-67546D01*
X85041Y-67590D01*
X85016Y-67629D01*
X84983Y-67662D01*
X84978Y-67665D01*
X84963Y-67677D01*
X84952Y-67685D01*
X84944Y-67691D01*
X85003Y-67833D01*
X85012Y-67855D01*
X85028Y-67894D01*
X85042Y-67927D01*
X85054Y-67954D01*
X85062Y-67972D01*
X85065Y-67979D01*
X85065Y-67979D01*
X85071Y-67980D01*
X85081Y-67976D01*
X85101Y-67967D01*
X85114Y-67960D01*
X85129Y-67953D01*
X85136Y-67950D01*
X85142Y-67953D01*
X85156Y-67962D01*
X85177Y-67976D01*
X85203Y-67994D01*
X85227Y-68010D01*
X85249Y-68025D01*
X85265Y-68035D01*
X85273Y-68039D01*
X85274Y-68039D01*
X85281Y-68035D01*
X85294Y-68025D01*
X85313Y-68007D01*
X85340Y-67980D01*
X85344Y-67975D01*
X85367Y-67953D01*
X85385Y-67934D01*
X85397Y-67920D01*
X85402Y-67914D01*
X85402Y-67914D01*
X85398Y-67906D01*
X85387Y-67890D01*
X85373Y-67867D01*
X85355Y-67841D01*
X85308Y-67773D01*
X85334Y-67709D01*
X85342Y-67689D01*
X85352Y-67665D01*
X85359Y-67648D01*
X85363Y-67641D01*
X85370Y-67638D01*
X85387Y-67634D01*
X85413Y-67629D01*
X85443Y-67623D01*
X85472Y-67618D01*
X85498Y-67613D01*
X85517Y-67609D01*
X85526Y-67608D01*
X85528Y-67606D01*
X85530Y-67602D01*
X85531Y-67593D01*
X85531Y-67577D01*
X85532Y-67552D01*
X85532Y-67516D01*
X85532Y-67512D01*
X85531Y-67478D01*
X85531Y-67450D01*
X85530Y-67433D01*
X85529Y-67426D01*
X85529Y-67426D01*
X85520Y-67424D01*
X85502Y-67420D01*
X85476Y-67415D01*
X85445Y-67409D01*
X85443Y-67408D01*
X85412Y-67402D01*
X85385Y-67397D01*
X85367Y-67393D01*
X85360Y-67390D01*
X85358Y-67388D01*
X85352Y-67376D01*
X85343Y-67357D01*
X85332Y-67333D01*
X85322Y-67309D01*
X85314Y-67287D01*
X85308Y-67270D01*
X85306Y-67263D01*
X85306Y-67263D01*
X85311Y-67255D01*
X85321Y-67239D01*
X85336Y-67217D01*
X85355Y-67190D01*
X85356Y-67188D01*
X85374Y-67162D01*
X85388Y-67140D01*
X85398Y-67124D01*
X85402Y-67117D01*
X85401Y-67116D01*
X85396Y-67109D01*
X85382Y-67094D01*
X85363Y-67074D01*
X85340Y-67050D01*
X85333Y-67043D01*
X85307Y-67018D01*
X85289Y-67002D01*
X85278Y-66993D01*
X85273Y-66991D01*
X85273Y-66991D01*
X85265Y-66996D01*
X85248Y-67007D01*
X85226Y-67022D01*
X85199Y-67040D01*
X85197Y-67042D01*
X85171Y-67060D01*
X85149Y-67074D01*
X85134Y-67085D01*
X85127Y-67089D01*
X85126Y-67089D01*
X85115Y-67086D01*
X85096Y-67079D01*
X85073Y-67070D01*
X85049Y-67060D01*
X85027Y-67051D01*
X85010Y-67044D01*
X85003Y-67039D01*
X85002Y-67039D01*
X85000Y-67029D01*
X84995Y-67010D01*
X84989Y-66983D01*
X84983Y-66950D01*
X84982Y-66945D01*
X84976Y-66914D01*
X84971Y-66888D01*
X84968Y-66870D01*
X84966Y-66863D01*
X84961Y-66862D01*
X84946Y-66861D01*
X84923Y-66860D01*
X84895Y-66860D01*
X84865Y-66860D01*
X84836Y-66861D01*
X84812Y-66861D01*
X84794Y-66863D01*
X84786Y-66864D01*
X84786Y-66865D01*
X84783Y-66874D01*
X84779Y-66894D01*
X84774Y-66921D01*
X84767Y-66953D01*
X84766Y-66959D01*
X84760Y-66990D01*
X84755Y-67016D01*
X84751Y-67034D01*
X84749Y-67041D01*
X84747Y-67042D01*
X84734Y-67048D01*
X84713Y-67056D01*
X84687Y-67067D01*
X84627Y-67091D01*
X84553Y-67041D01*
X84546Y-67036D01*
X84520Y-67018D01*
X84498Y-67003D01*
X84483Y-66994D01*
X84476Y-66990D01*
X84476Y-66990D01*
X84468Y-66997D01*
X84454Y-67010D01*
X84434Y-67030D01*
X84411Y-67053D01*
X84393Y-67070D01*
X84373Y-67091D01*
X84360Y-67105D01*
X84353Y-67114D01*
X84351Y-67119D01*
X84351Y-67123D01*
X84356Y-67130D01*
X84367Y-67147D01*
X84382Y-67169D01*
X84400Y-67195D01*
X84415Y-67217D01*
X84431Y-67242D01*
X84441Y-67259D01*
X84445Y-67268D01*
X84444Y-67272D01*
X84439Y-67286D01*
X84430Y-67308D01*
X84419Y-67334D01*
X84393Y-67392D01*
X84355Y-67400D01*
X84332Y-67404D01*
X84299Y-67410D01*
X84268Y-67416D01*
X84220Y-67426D01*
X84218Y-67603D01*
X84226Y-67606D01*
X84233Y-67608D01*
X84251Y-67612D01*
X84276Y-67617D01*
X84307Y-67623D01*
X84332Y-67628D01*
X84358Y-67633D01*
X84377Y-67636D01*
X84385Y-67638D01*
X84387Y-67641D01*
X84394Y-67653D01*
X84403Y-67673D01*
X84413Y-67697D01*
X84424Y-67722D01*
X84433Y-67745D01*
X84439Y-67763D01*
X84442Y-67772D01*
X84438Y-67779D01*
X84428Y-67794D01*
X84414Y-67816D01*
X84396Y-67842D01*
X84379Y-67867D01*
X84364Y-67890D01*
X84354Y-67905D01*
X84349Y-67913D01*
X84351Y-67918D01*
X84362Y-67930D01*
X84381Y-67950D01*
X84410Y-67979D01*
X84415Y-67983D01*
X84438Y-68006D01*
X84457Y-68024D01*
X84471Y-68036D01*
X84477Y-68040D01*
X84477Y-68040D01*
G37*
G54D14*
X81550Y-69750D02*
X81500Y-69750D01*
X81500Y-69750D02*
X81500Y-71850D01*
X83000Y-71850D02*
X83000Y-69750D01*
X83000Y-69750D02*
X81550Y-69750D01*
X82450Y-69750D02*
X82450Y-69950D01*
X82450Y-69950D02*
X82050Y-69950D01*
X82050Y-69950D02*
X82050Y-69750D01*
X83000Y-71850D02*
X81500Y-71850D01*
X83225Y-73125D02*
X83225Y-72225D01*
X83225Y-72225D02*
X82575Y-72225D01*
X81875Y-73125D02*
X81225Y-73125D01*
X81225Y-73125D02*
X81225Y-72225D01*
X81225Y-72225D02*
X81875Y-72225D01*
X82575Y-73125D02*
X83225Y-73125D01*
X83200Y-69350D02*
X83200Y-68450D01*
X83200Y-68450D02*
X82550Y-68450D01*
X81850Y-69350D02*
X81200Y-69350D01*
X81200Y-69350D02*
X81200Y-68450D01*
X81200Y-68450D02*
X81850Y-68450D01*
X82550Y-69350D02*
X83200Y-69350D01*
X82175Y-72767D02*
X82160Y-72782D01*
X82117Y-72796D01*
X82089Y-72796D01*
X82046Y-72782D01*
X82017Y-72753D01*
X82003Y-72725D01*
X81989Y-72667D01*
X81989Y-72625D01*
X82003Y-72567D01*
X82017Y-72539D01*
X82046Y-72510D01*
X82089Y-72496D01*
X82117Y-72496D01*
X82160Y-72510D01*
X82175Y-72525D01*
X82289Y-72525D02*
X82303Y-72510D01*
X82332Y-72496D01*
X82403Y-72496D01*
X82432Y-72510D01*
X82446Y-72525D01*
X82460Y-72553D01*
X82460Y-72582D01*
X82446Y-72625D01*
X82275Y-72796D01*
X82460Y-72796D01*
X82150Y-68992D02*
X82135Y-69007D01*
X82092Y-69021D01*
X82064Y-69021D01*
X82021Y-69007D01*
X81992Y-68978D01*
X81978Y-68950D01*
X81964Y-68892D01*
X81964Y-68850D01*
X81978Y-68792D01*
X81992Y-68764D01*
X82021Y-68735D01*
X82064Y-68721D01*
X82092Y-68721D01*
X82135Y-68735D01*
X82150Y-68750D01*
X82435Y-69021D02*
X82264Y-69021D01*
X82350Y-69021D02*
X82350Y-68721D01*
X82321Y-68764D01*
X82292Y-68792D01*
X82264Y-68807D01*
M02*
